<svg version="1" xmlns="http://www.w3.org/2000/svg" width="413.333" height="413.333" viewBox="0 0 310.000000 310.000000"><path d="M0 155v155h310V0H0v155zm246-77c4.7.6 10.9 1.5 13.8 2.1l5.3 1.1-.6 4.6c-1.3 10.3-.1 9.5-12.8 8.6-6.2-.4-17.3-.7-24.7-.7-11.7 0-14.3.3-19.4 2.3-10.9 4.2-16 10.6-19.8 24.8-1.7 6.3-2.1 11.8-2.5 29.3-.7 26.7.8 38.6 6.2 49.5 7.6 15.5 18.9 18.9 55.9 16.5 9.9-.7 18.3-.8 18.7-.4.4.4.9 3.5 1.1 6.7.3 5.8.3 5.9-2.7 6.8-13 3.7-46.2 5-58.9 2.3-15.8-3.3-26.1-11-32.2-23.9-5.4-11.4-7.4-22.9-8.1-45.7-1.6-55.2 10.4-78.3 43.3-83.8 7.1-1.2 27.6-1.3 37.4-.1zm-122 2c4.7 0 9.1.4 9.8.9 1 .6 1.1 2.5.6 7.4l-.7 6.7h-31.4c-34.8 0-36.7.3-40.3 6.2-1.8 3-2 5-2 22.5V143h65v15H60v23.6c0 19.8.3 24.2 1.6 27 3 6.3 3.7 6.4 39.7 6.4h32.4l.7 7.1c.3 4 .4 7.4.2 7.6-.2.3-17 .5-37.3.6-33.2.2-37.2 0-40.5-1.5-5.3-2.5-10.6-7.4-13.1-12.2-2.2-4.1-2.2-4.7-2.5-59-.2-47.4-.1-55.5 1.3-60.2 2.6-9 9.7-15.2 19.8-17.4 2.3-.5 15.2-.7 28.7-.5 13.5.3 28.3.5 33 .5z"/></svg>