<?xml version="1.0" encoding="iso-8859-1"?>
<!-- Generator: Adobe Illustrator 16.0.0, SVG Export Plug-In . SVG Version: 6.00 Build 0)  -->
<!DOCTYPE svg PUBLIC "-//W3C//DTD SVG 1.1//EN" "http://www.w3.org/Graphics/SVG/1.1/DTD/svg11.dtd">
<svg xmlns="http://www.w3.org/2000/svg" xmlns:xlink="http://www.w3.org/1999/xlink" version="1.1" id="Capa_1" x="0px" y="0px" width="512px" height="512px" viewBox="0 0 97.75 97.75" style="enable-background:new 0 0 97.75 97.75;" xml:space="preserve">
<g>
	<g>
		<path d="M71.182,20.226h-45.19c-4.534,0-5.796,1.554-5.796,6.507v27.345c9.628,5.044,17.896,4.148,22.412,4.008    c1.896-0.095,3.115,0.324,3.854,1.104c0.129,0.108,0.264,0.227,0.405,0.358c0.85,0.789,1.679,1.474,2.489,2.052    c0.166-2.234,1.416-3.683,4.785-3.514c4.584,0.145,13.035,1.068,22.852-4.238V26.733C76.993,22.072,75.477,20.226,71.182,20.226z     M38.658,54.74c-4.844,0-8.773-3.674-8.773-8.208s3.93-8.208,8.773-8.208c4.846,0,8.775,3.674,8.775,8.208    S43.504,54.74,38.658,54.74z M59.079,54.74c-4.845,0-8.776-3.674-8.776-8.208s3.932-8.208,8.776-8.208    c4.844,0,8.774,3.674,8.774,8.208S63.924,54.74,59.079,54.74z" fill="#6d8bb2"/>
		<path d="M48.875,0C21.883,0,0,21.882,0,48.875S21.883,97.75,48.875,97.75S97.75,75.868,97.75,48.875S75.867,0,48.875,0z     M68.493,63.898c8.024,27.275-19.543,31.608-19.121,17.623c0,0.252-0.015-7.496-0.026-13.27c-0.59-0.145-1.217-0.311-1.94-0.48    c-0.012,5.812-0.027,14.011-0.027,13.75c0.422,13.985-27.127,9.652-19.121-17.623c-7.568-3.106-12.504-7.057-15.101-10.237    c-1.333-1.974,0.093-4.041,2.269-2.522c0.293,0.209,0.586,0.408,0.877,0.605V23.535c0-3.913,2.942-7.074,6.563-7.074h51.059    c3.62,0,6.563,3.162,6.563,7.074V51.72c0.279-0.189,0.56-0.38,0.84-0.581c2.176-1.518,3.602,0.549,2.268,2.523    C80.999,56.842,76.062,60.792,68.493,63.898z" fill="#6d8bb2"/>
	</g>
</g>
</svg>
