<?xml version="1.0" encoding="UTF-8"?>
<svg width="23px" height="24px" viewBox="0 0 23 24" version="1.1" xmlns="http://www.w3.org/2000/svg" xmlns:xlink="http://www.w3.org/1999/xlink">
        <g>
            <path d="M22.3902987,5.29588861 C22.0440304,2.74982886 19.8007291,0.743362025 17.1414684,0.354562025 C16.6928203,0.288863696 14.9929519,0.0497674937 11.0552203,0.0497674937 L11.0258127,0.0497674937 C7.08701772,0.0497674937 6.24197468,0.288863696 5.79332658,0.354562025 C3.20810127,0.732592405 0.847221266,2.53550582 0.274422076,5.1116962 C-0.00108715139,6.38041519 -0.0304894177,7.78699747 0.0206922532,9.0772557 C0.0936531646,10.9275646 0.107809823,12.7746228 0.277689114,14.6173975 C0.395131139,15.8414582 0.600006076,17.0557671 0.890779747,18.2512101 C1.4352638,20.4590886 3.63934177,22.2964557 5.79876456,23.0460759 C8.11075443,23.8278076 10.5970937,23.9575595 12.979443,23.4208709 C13.2414987,23.3605671 13.5006987,23.2905418 13.7569519,23.2108557 C14.3352,23.0288506 15.0136405,22.8252759 15.5123848,22.4677063 C15.5192203,22.4626937 15.5248405,22.4562228 15.5287899,22.4487494 C15.5327392,22.4413063 15.534957,22.433043 15.5352304,22.4246278 L15.5352304,20.6389671 C15.5351089,20.6310987 15.5332253,20.6233519 15.5297013,20.6163038 C15.5261468,20.6092557 15.5210734,20.6030582 15.5147848,20.5982278 C15.5085266,20.5933671 15.5012354,20.5899646 15.4934886,20.5882329 C15.4857114,20.5865316 15.4776608,20.586562 15.4699139,20.5883241 C13.9435747,20.9489316 12.3794734,21.1296911 10.8102076,21.1268354 C8.10956962,21.1268354 7.38322025,19.8592101 7.17521013,19.3314532 C7.00803038,18.875362 6.90185316,18.3996152 6.85941266,17.9162734 C6.85898734,17.908162 6.86050633,17.9000506 6.86381772,17.8926076 C6.86712911,17.8851949 6.87220253,17.8786329 6.8785519,17.8734987 C6.88493165,17.8683646 6.89243544,17.8647797 6.9004557,17.8630481 C6.90847595,17.8612861 6.9168,17.8614684 6.92475949,17.8635038 C8.42567089,18.2216506 9.96425316,18.4024101 11.508243,18.4020152 C11.8795747,18.4020152 12.2498127,18.4020152 12.6211747,18.3923241 C14.1740354,18.3492456 15.8107443,18.2706228 17.3385722,17.9755139 C17.3766987,17.9679797 17.4147949,17.9615089 17.4474835,17.9518177 C19.857357,17.4940861 22.1507241,16.0573671 22.3837671,12.4192101 C22.3924861,12.2759696 22.4142684,10.9189367 22.4142684,10.770319 C22.415362,10.2651949 22.5787139,7.18711899 22.3902987,5.29588861 Z M18.6812658,14.3739949 L16.1472608,14.3739949 L16.1472608,8.23503797 C16.1472608,6.94262278 15.6027646,6.2835038 14.4952709,6.2835038 C13.2778025,6.2835038 12.6679899,7.06326076 12.6679899,8.60336203 L12.6679899,11.9636354 L10.1492051,11.9636354 L10.1492051,8.60336203 C10.1492051,7.06326076 9.53829873,6.2835038 8.32083038,6.2835038 C7.21986835,6.2835038 6.66993418,6.94262278 6.66884051,8.23503797 L6.66884051,14.3739949 L4.13699241,14.3739949 L4.13699241,8.04871899 C4.13699241,6.7563038 4.47059241,5.72955949 5.13776203,4.9684557 C5.82598481,4.20917468 6.72874937,3.81931139 7.84930633,3.81931139 C9.1462481,3.81931139 10.1263291,4.31255696 10.7797063,5.29804557 L11.410238,6.34490127 L12.0418329,5.29804557 C12.6952101,4.31255696 13.6752911,3.81931139 14.9700759,3.81931139 C16.0895392,3.81931139 16.9922734,4.20917468 17.6826835,4.9684557 C18.3498835,5.72883038 18.6834532,6.75557468 18.6834532,8.04871899 L18.6812658,14.3739949 Z" id="Shape"></path>
        </g>
    </g>
</svg>